<svg version="1.1" id="Layer_1" xmlns="http://www.w3.org/2000/svg" xmlns:xlink="http://www.w3.org/1999/xlink" x="0px" y="0px"
	 width="100%" viewBox="0 0 512 512" enable-background="new 0 0 512 512" xml:space="preserve">
<path fill="#FFFFFF" opacity="1.000000" stroke="none" 
	d="
M513.000000,372.000000 
	C513.000000,418.986877 513.000000,465.973755 513.000000,512.980347 
	C342.394135,512.980347 171.788284,512.980347 1.091213,512.980347 
	C1.091213,342.441864 1.091213,171.883667 1.091213,1.000000 
	C128.022461,1.000000 255.045197,1.000000 382.372437,1.351552 
	C374.651459,5.063277 366.169891,7.636311 358.703796,11.962045 
	C346.502289,19.031399 337.222290,29.237274 331.078369,42.285175 
	C305.559418,42.201714 280.531403,42.242229 255.308350,41.997856 
	C254.720947,40.652981 254.521927,39.462494 253.907608,38.552322 
	C242.311951,21.372623 226.206573,10.766836 205.611526,9.212878 
	C178.355103,7.156300 157.019760,18.107193 142.396164,41.978214 
	C109.117668,41.992664 76.298607,41.972816 43.479740,42.042564 
	C40.694920,42.048481 37.857273,42.410595 35.135967,43.018318 
	C16.675344,47.140915 1.734532,65.768074 1.838123,84.825500 
	C2.237462,158.291336 1.992931,231.760651 2.005548,305.228668 
	C2.008466,322.220093 2.079198,339.211548 2.079333,356.655029 
	C1.569515,365.482788 2.405461,373.686371 6.387497,381.191467 
	C15.154953,397.715698 28.966978,405.952667 47.735760,405.944244 
	C87.815277,405.926270 127.894829,405.982635 167.979034,406.411438 
	C167.135681,410.247009 166.258728,413.672821 165.444611,417.113495 
	C161.950058,431.882690 158.424637,446.644958 155.035843,461.438416 
	C154.412872,464.157990 153.188919,465.117920 150.357605,465.064514 
	C141.198914,464.891571 132.031998,464.858887 122.873901,465.046906 
	C116.153191,465.184814 110.318489,467.976135 105.259323,472.270721 
	C92.781693,482.862671 92.319962,497.063019 93.242599,511.834808 
	C112.391838,511.834808 131.188309,511.834808 150.449280,511.908203 
	C241.181107,511.981628 331.448456,511.981628 422.474854,511.981628 
	C421.960297,504.195923 422.099304,496.888519 420.877258,489.816284 
	C418.510498,476.119751 403.668030,464.225220 390.184875,464.904602 
	C380.570374,465.389008 370.911743,464.998596 361.410095,464.998596 
	C358.153168,451.382629 354.996033,438.183960 351.777466,424.599457 
	C350.154541,418.145752 348.593140,412.077850 347.497345,405.976166 
	C387.780701,405.938507 427.598511,405.956635 467.416229,405.920807 
	C485.453735,405.904602 499.327179,398.560608 508.004242,382.390076 
	C509.819489,379.007202 511.342438,375.467468 513.000000,372.000000 
z"/>
<path fill="#C4E2F1" opacity="1.000000" stroke="none" 
	d="
M255.503403,42.282742 
	C280.531403,42.242229 305.559418,42.201714 330.965393,42.632679 
	C324.081360,58.861107 321.807800,75.345985 325.452606,92.277672 
	C336.266296,142.511978 391.386688,167.890182 436.740875,143.732315 
	C463.517151,129.469971 479.928650,99.076256 476.063721,69.293648 
	C474.862549,60.037788 471.499268,51.062508 469.571228,41.972679 
	C484.055481,41.674782 495.375366,47.377266 503.708191,58.373657 
	C507.505768,63.385098 509.944763,69.426025 513.000000,75.000000 
	C513.000000,168.355347 513.000000,261.710693 512.533813,355.585754 
	C468.356903,356.063965 424.646179,356.022430 380.936890,355.552917 
	C374.797363,297.865021 368.656372,240.605164 362.463379,182.860519 
	C345.447571,182.860519 328.826294,182.860519 312.167206,182.423676 
	C309.323334,154.756104 306.517273,127.525398 303.685455,100.044785 
	C289.956207,100.044785 276.821167,100.044785 263.557373,99.591827 
	C263.401520,95.824135 263.283203,92.507217 263.362823,89.195045 
	C263.750946,73.049110 263.693695,56.987774 255.503403,42.282742 
M449.500000,199.018402 
	C437.017059,199.018570 424.534058,198.993881 412.051208,199.029037 
	C405.463684,199.047577 401.975311,201.748718 401.901245,206.740921 
	C401.825562,211.842239 405.254059,214.792023 411.739594,214.808121 
	C435.373840,214.866776 459.008423,214.871109 482.642609,214.803177 
	C488.861603,214.785309 492.185181,211.948578 492.274872,207.054581 
	C492.367889,201.978912 488.878235,199.063416 482.456299,199.033340 
	C471.804413,198.983459 461.152130,199.018906 449.500000,199.018402 
M425.899353,251.149536 
	C445.048584,251.151428 464.197998,251.194687 483.346985,251.129974 
	C489.082153,251.110611 492.336060,248.129440 492.287323,243.344925 
	C492.239990,238.701889 489.177124,235.768646 483.680847,235.740051 
	C464.532166,235.640396 445.382355,235.642838 426.233612,235.737671 
	C420.859070,235.764282 417.968933,238.362396 417.626770,242.819321 
	C417.286835,247.246826 419.630005,249.875900 425.899353,251.149536 
z"/>
<path fill="#3E404E" opacity="1.000000" stroke="none" 
	d="
M380.935455,355.980896 
	C424.646179,356.022430 468.356903,356.063965 512.533813,356.052734 
	C513.000000,361.022095 513.000000,366.044189 513.000000,371.533142 
	C511.342438,375.467468 509.819489,379.007202 508.004242,382.390076 
	C499.327179,398.560608 485.453735,405.904602 467.416229,405.920807 
	C427.598511,405.956635 387.780701,405.938507 347.026642,405.978149 
	C286.718353,406.012085 227.346359,406.010315 167.974365,406.008545 
	C127.894829,405.982635 87.815277,405.926270 47.735760,405.944244 
	C28.966978,405.952667 15.154953,397.715698 6.387497,381.191467 
	C2.405461,373.686371 1.569515,365.482788 2.538914,356.624023 
	C24.771297,356.090637 46.504711,356.040283 68.686142,356.047699 
	C105.777168,356.078217 142.420181,356.050934 179.517487,356.113403 
	C186.291458,356.183838 192.611115,356.164551 199.397064,356.235229 
	C242.934341,356.336548 286.005371,356.384277 329.076324,356.341187 
	C346.362823,356.323883 363.649078,356.106964 380.935455,355.980896 
z"/>
<path fill="#33CC78" opacity="1.000000" stroke="none" 
	d="
M469.125854,41.958778 
	C471.499268,51.062508 474.862549,60.037788 476.063721,69.293648 
	C479.928650,99.076256 463.517151,129.469971 436.740875,143.732315 
	C391.386688,167.890182 336.266296,142.511978 325.452606,92.277672 
	C321.807800,75.345985 324.081360,58.861107 331.456329,42.756653 
	C337.222290,29.237274 346.502289,19.031399 358.703796,11.962045 
	C366.169891,7.636311 374.651459,5.063277 382.838501,1.351552 
	C394.354218,1.000000 405.708466,1.000000 417.692444,1.351242 
	C424.411072,3.883240 430.927155,5.295349 436.505005,8.395502 
	C450.637939,16.250500 461.974426,27.155470 469.125854,41.958778 
M413.927704,88.438301 
	C420.747986,74.382278 427.578705,60.331295 434.373230,46.262817 
	C435.090332,44.778019 435.780518,43.234806 436.160828,41.641743 
	C437.099030,37.712093 435.555725,34.758011 432.009491,33.014431 
	C428.371429,31.225695 425.151978,32.174492 422.709229,35.295326 
	C421.598297,36.714672 420.821655,38.418125 420.022736,40.055817 
	C411.423706,57.682209 402.853516,75.322662 394.264801,92.954086 
	C393.563812,94.393166 392.785126,95.794403 391.717590,97.834099 
	C387.292877,89.915779 383.295715,82.656212 379.193573,75.456413 
	C376.121368,70.064247 372.044464,68.442818 367.752594,70.725861 
	C363.559021,72.956604 362.560669,77.627831 365.438660,82.879677 
	C371.750763,94.398315 377.988953,105.967606 384.731140,117.232651 
	C386.222565,119.724609 389.463898,122.052872 392.282135,122.649757 
	C396.044800,123.446655 398.467438,120.326004 400.094269,116.925392 
	C404.541077,107.630089 409.091736,98.384453 413.927704,88.438301 
z"/>
<path fill="#FFFFFF" opacity="1.000000" stroke="none" 
	d="
M469.571228,41.972679 
	C461.974426,27.155470 450.637939,16.250500 436.505005,8.395502 
	C430.927155,5.295349 424.411072,3.883240 418.161102,1.351242 
	C449.584503,1.000000 481.168976,1.000000 513.000000,1.000000 
	C513.000000,25.353674 513.000000,49.708179 513.000000,74.531342 
	C509.944763,69.426025 507.505768,63.385098 503.708191,58.373657 
	C495.375366,47.377266 484.055481,41.674782 469.571228,41.972679 
z"/>
<path fill="#C4E2F2" opacity="1.000000" stroke="none" 
	d="
M68.238129,355.989929 
	C46.504711,356.040283 24.771297,356.090637 2.578306,356.171997 
	C2.079198,339.211548 2.008466,322.220093 2.005548,305.228668 
	C1.992931,231.760651 2.237462,158.291336 1.838123,84.825500 
	C1.734532,65.768074 16.675344,47.140915 35.135967,43.018318 
	C37.857273,42.410595 40.694920,42.048481 43.479740,42.042564 
	C76.298607,41.972816 109.117668,41.992664 142.433624,42.341331 
	C140.357986,51.368866 136.677780,59.897110 135.502792,68.757568 
	C134.139038,79.041466 134.973877,89.616920 134.396912,100.066368 
	C121.005714,100.066917 108.072006,100.066917 94.823975,100.066917 
	C85.927925,185.702835 77.083023,270.846375 68.238129,355.989929 
z"/>
<path fill="#3C3F4D" opacity="1.000000" stroke="none" 
	d="
M351.838928,424.985260 
	C354.996033,438.183960 358.153168,451.382629 361.410095,464.998596 
	C370.911743,464.998596 380.570374,465.389008 390.184875,464.904602 
	C403.668030,464.225220 418.510498,476.119751 420.877258,489.816284 
	C422.099304,496.888519 421.960297,504.195923 422.474854,511.981628 
	C331.448456,511.981628 241.181107,511.981628 150.454315,511.450745 
	C149.996918,506.757294 149.840866,502.587494 150.029449,498.433350 
	C150.708344,483.478119 159.016769,469.550293 175.866425,466.194153 
	C183.094025,464.754578 190.723221,465.126251 198.171982,465.090118 
	C201.801987,465.072510 203.397675,464.045593 204.210449,460.299316 
	C206.760056,448.547424 209.783600,436.898346 212.678040,424.985260 
	C259.293030,424.985260 305.566010,424.985260 351.838928,424.985260 
z"/>
<path fill="#2D303B" opacity="1.000000" stroke="none" 
	d="
M351.777466,424.599457 
	C305.566010,424.985260 259.293030,424.985260 212.678040,424.985260 
	C209.783600,436.898346 206.760056,448.547424 204.210449,460.299316 
	C203.397675,464.045593 201.801987,465.072510 198.171982,465.090118 
	C190.723221,465.126251 183.094025,464.754578 175.866425,466.194153 
	C159.016769,469.550293 150.708344,483.478119 150.029449,498.433350 
	C149.840866,502.587494 149.996918,506.757294 149.989822,511.377350 
	C131.188309,511.834808 112.391838,511.834808 93.242599,511.834808 
	C92.319962,497.063019 92.781693,482.862671 105.259323,472.270721 
	C110.318489,467.976135 116.153191,465.184814 122.873901,465.046906 
	C132.031998,464.858887 141.198914,464.891571 150.357605,465.064514 
	C153.188919,465.117920 154.412872,464.157990 155.035843,461.438416 
	C158.424637,446.644958 161.950058,431.882690 165.444611,417.113495 
	C166.258728,413.672821 167.135681,410.247009 167.979034,406.411438 
	C227.346359,406.010315 286.718353,406.012085 346.561035,406.011902 
	C348.593140,412.077850 350.154541,418.145752 351.777466,424.599457 
z"/>
<path fill="#3D404E" opacity="1.000000" stroke="none" 
	d="
M134.854401,100.065819 
	C134.973877,89.616920 134.139038,79.041466 135.502792,68.757568 
	C136.677780,59.897110 140.357986,51.368866 142.893112,42.330627 
	C157.019760,18.107193 178.355103,7.156300 205.611526,9.212878 
	C226.206573,10.766836 242.311951,21.372623 253.907608,38.552322 
	C254.521927,39.462494 254.720947,40.652981 255.308350,41.997856 
	C263.693695,56.987774 263.750946,73.049110 263.362823,89.195045 
	C263.283203,92.507217 263.401520,95.824135 263.408478,100.033096 
	C263.349335,108.383774 263.347168,115.840652 263.259796,123.296524 
	C263.188873,129.348114 260.335022,132.904587 255.647354,132.952591 
	C250.925323,133.000931 247.971588,129.402954 247.892715,123.413734 
	C247.790207,115.629700 247.734253,107.845055 247.742645,99.592117 
	C247.833191,90.498627 248.177048,81.857460 247.763458,73.252693 
	C247.195572,61.437618 244.165756,50.420765 234.954437,41.645947 
	C232.941422,39.770802 230.992752,38.280106 229.168472,36.650204 
	C211.038544,20.452118 180.001877,22.384941 163.584015,42.017433 
	C160.118042,47.052330 156.190979,51.711933 154.018646,57.081440 
	C148.401672,70.965225 151.371780,85.675156 150.970367,100.524109 
	C150.886322,108.317795 150.947113,115.651985 150.827576,122.983231 
	C150.724014,129.333496 147.598907,133.027847 142.683762,132.930511 
	C138.045471,132.838654 135.109467,129.105713 135.032761,123.056335 
	C134.935623,115.393311 134.910538,107.729362 134.854401,100.065819 
z"/>
<path fill="#FF491F" opacity="1.000000" stroke="none" 
	d="
M247.658279,100.060669 
	C247.734253,107.845055 247.790207,115.629700 247.892715,123.413734 
	C247.971588,129.402954 250.925323,133.000931 255.647354,132.952591 
	C260.335022,132.904587 263.188873,129.348114 263.259796,123.296524 
	C263.347168,115.840652 263.349335,108.383774 263.537231,100.486053 
	C276.821167,100.044785 289.956207,100.044785 303.685455,100.044785 
	C306.517273,127.525398 309.323334,154.756104 311.685059,182.470581 
	C279.912018,182.993958 248.583267,183.033554 216.765808,183.049637 
	C211.119492,183.017639 205.952133,182.834564 200.811050,183.121780 
	C199.504272,183.194778 197.336807,184.616425 197.174118,185.667465 
	C196.190536,192.022354 195.638580,198.446045 195.009201,204.853302 
	C193.927399,215.866104 192.988327,226.893692 191.818100,237.896866 
	C190.300034,252.170731 188.553467,266.420227 187.020874,280.692627 
	C185.874832,291.365204 184.982452,302.064911 183.849823,312.739044 
	C182.318130,327.174011 180.664505,341.596069 179.063202,356.023651 
	C142.420181,356.050934 105.777168,356.078217 68.686142,356.047668 
	C77.083023,270.846375 85.927925,185.702835 94.823975,100.066917 
	C108.072006,100.066917 121.005714,100.066917 134.396912,100.066368 
	C134.910538,107.729362 134.935623,115.393311 135.032761,123.056335 
	C135.109467,129.105713 138.045471,132.838654 142.683762,132.930511 
	C147.598907,133.027847 150.724014,129.333496 150.827576,122.983231 
	C150.947113,115.651985 150.886322,108.317795 151.435822,100.526123 
	C183.864624,100.065125 215.761459,100.062897 247.658279,100.060669 
z"/>
<path fill="#FFE14D" opacity="1.000000" stroke="none" 
	d="
M217.254532,183.073151 
	C248.583267,183.033554 279.912018,182.993958 311.722900,182.907440 
	C328.826294,182.860519 345.447571,182.860519 362.463379,182.860519 
	C368.656372,240.605164 374.797363,297.865021 380.936890,355.552917 
	C363.649078,356.106964 346.362823,356.323883 329.076324,356.341187 
	C286.005371,356.384277 242.934341,356.336548 199.419083,355.786743 
	C199.293671,352.447205 199.636154,349.648621 199.927628,346.844727 
	C202.362747,323.419922 204.745712,299.989532 207.227585,276.569702 
	C210.530716,245.400024 213.908691,214.238297 217.254532,183.073151 
M252.882919,266.532837 
	C260.721680,281.436951 273.316345,289.537994 289.886353,289.568176 
	C314.166016,289.612396 330.439362,270.247833 331.014893,250.824722 
	C331.360199,239.171158 331.233093,227.501419 331.189911,215.839432 
	C331.167755,209.853424 328.467377,206.880219 323.497894,206.918472 
	C318.725861,206.955200 315.935394,210.192322 315.896088,216.023392 
	C315.828766,226.020294 315.987274,236.019653 315.836853,246.014771 
	C315.709503,254.476196 313.404236,262.194733 306.547272,267.772339 
	C298.319000,274.465332 289.045319,275.923431 279.403320,271.583069 
	C269.114380,266.951477 264.316101,258.325531 264.094391,247.238785 
	C263.887878,236.912277 264.078613,226.578339 264.030365,216.247971 
	C264.003784,210.556885 261.562256,207.360428 257.127441,206.966400 
	C252.213501,206.529816 248.576111,209.346985 248.433441,215.051193 
	C248.142258,226.692688 248.122299,238.372162 248.773468,249.992111 
	C249.073013,255.337296 251.217331,260.579102 252.882919,266.532837 
z"/>
<path fill="#3F4351" opacity="1.000000" stroke="none" 
	d="
M450.000000,199.018402 
	C461.152130,199.018906 471.804413,198.983459 482.456299,199.033340 
	C488.878235,199.063416 492.367889,201.978912 492.274872,207.054581 
	C492.185181,211.948578 488.861603,214.785309 482.642609,214.803177 
	C459.008423,214.871109 435.373840,214.866776 411.739594,214.808121 
	C405.254059,214.792023 401.825562,211.842239 401.901245,206.740921 
	C401.975311,201.748718 405.463684,199.047577 412.051208,199.029037 
	C424.534058,198.993881 437.017059,199.018570 450.000000,199.018402 
z"/>
<path fill="#3D404E" opacity="1.000000" stroke="none" 
	d="
M425.451721,251.123169 
	C419.630005,249.875900 417.286835,247.246826 417.626770,242.819321 
	C417.968933,238.362396 420.859070,235.764282 426.233612,235.737671 
	C445.382355,235.642838 464.532166,235.640396 483.680847,235.740051 
	C489.177124,235.768646 492.239990,238.701889 492.287323,243.344925 
	C492.336060,248.129440 489.082153,251.110611 483.346985,251.129974 
	C464.197998,251.194687 445.048584,251.151428 425.451721,251.123169 
z"/>
<path fill="#ED3718" opacity="1.000000" stroke="none" 
	d="
M216.765808,183.049637 
	C213.908691,214.238297 210.530716,245.400024 207.227585,276.569702 
	C204.745712,299.989532 202.362747,323.419922 199.927628,346.844727 
	C199.636154,349.648621 199.293671,352.447205 198.952820,355.696747 
	C192.611115,356.164551 186.291458,356.183838 179.517487,356.113403 
	C180.664505,341.596069 182.318130,327.174011 183.849823,312.739044 
	C184.982452,302.064911 185.874832,291.365204 187.020874,280.692627 
	C188.553467,266.420227 190.300034,252.170731 191.818100,237.896866 
	C192.988327,226.893692 193.927399,215.866104 195.009201,204.853302 
	C195.638580,198.446045 196.190536,192.022354 197.174118,185.667465 
	C197.336807,184.616425 199.504272,183.194778 200.811050,183.121780 
	C205.952133,182.834564 211.119492,183.017639 216.765808,183.049637 
z"/>
<path fill="#FCFEFD" opacity="1.000000" stroke="none" 
	d="
M413.764496,88.778732 
	C409.091736,98.384453 404.541077,107.630089 400.094269,116.925392 
	C398.467438,120.326004 396.044800,123.446655 392.282135,122.649757 
	C389.463898,122.052872 386.222565,119.724609 384.731140,117.232651 
	C377.988953,105.967606 371.750763,94.398315 365.438660,82.879677 
	C362.560669,77.627831 363.559021,72.956604 367.752594,70.725861 
	C372.044464,68.442818 376.121368,70.064247 379.193573,75.456413 
	C383.295715,82.656212 387.292877,89.915779 391.717590,97.834099 
	C392.785126,95.794403 393.563812,94.393166 394.264801,92.954086 
	C402.853516,75.322662 411.423706,57.682209 420.022736,40.055817 
	C420.821655,38.418125 421.598297,36.714672 422.709229,35.295326 
	C425.151978,32.174492 428.371429,31.225695 432.009491,33.014431 
	C435.555725,34.758011 437.099030,37.712093 436.160828,41.641743 
	C435.780518,43.234806 435.090332,44.778019 434.373230,46.262817 
	C427.578705,60.331295 420.747986,74.382278 413.764496,88.778732 
z"/>
<path fill="#C4E2F2" opacity="1.000000" stroke="none" 
	d="
M247.742645,99.592117 
	C215.761459,100.062897 183.864624,100.065125 151.502350,100.065338 
	C151.371780,85.675156 148.401672,70.965225 154.018646,57.081440 
	C156.190979,51.711933 160.118042,47.052330 164.057159,42.029602 
	C188.271271,41.981861 211.673889,41.973831 235.076523,41.965797 
	C244.165756,50.420765 247.195572,61.437618 247.763458,73.252693 
	C248.177048,81.857460 247.833191,90.498627 247.742645,99.592117 
z"/>
<path fill="#FFFFFF" opacity="1.000000" stroke="none" 
	d="
M234.954437,41.645947 
	C211.673889,41.973831 188.271271,41.981861 164.395477,41.977730 
	C180.001877,22.384941 211.038544,20.452118 229.168472,36.650204 
	C230.992752,38.280106 232.941422,39.770802 234.954437,41.645947 
z"/>
<path fill="#FFFFFC" opacity="1.000000" stroke="none" 
	d="
M252.704025,266.200317 
	C251.217331,260.579102 249.073013,255.337296 248.773468,249.992111 
	C248.122299,238.372162 248.142258,226.692688 248.433441,215.051193 
	C248.576111,209.346985 252.213501,206.529816 257.127441,206.966400 
	C261.562256,207.360428 264.003784,210.556885 264.030365,216.247971 
	C264.078613,226.578339 263.887878,236.912277 264.094391,247.238785 
	C264.316101,258.325531 269.114380,266.951477 279.403320,271.583069 
	C289.045319,275.923431 298.319000,274.465332 306.547272,267.772339 
	C313.404236,262.194733 315.709503,254.476196 315.836853,246.014771 
	C315.987274,236.019653 315.828766,226.020294 315.896088,216.023392 
	C315.935394,210.192322 318.725861,206.955200 323.497894,206.918472 
	C328.467377,206.880219 331.167755,209.853424 331.189911,215.839432 
	C331.233093,227.501419 331.360199,239.171158 331.014893,250.824722 
	C330.439362,270.247833 314.166016,289.612396 289.886353,289.568176 
	C273.316345,289.537994 260.721680,281.436951 252.704025,266.200317 
z"/>
</svg>